# xmcd
#
# Track frame offsets: 
#        150
#        22013
#        39766
#        62946
#        79153
#        95636
#        114028
#        129682
#        147065
#        165765
#        178094
#        198484
#
# Disc length: 2876 seconds
#
# Revision: 0
# Processed by: cddbd v1.5.2PL0 Copyright (c) Steve Scherf et al.
# Submitted via: ExactAudioCopyFreeDBPlugin 1.0
#
DISCID=980b3a0c
DTITLE=Mighty Mike Schermer - Be Somebody
DYEAR=2013
DGENRE=Blues
TTITLE0=Be Sombody
TTITLE1=Things Ain't Everything
TTITLE2=In My Minds Eye
TTITLE3=Corazon
TTITLE4=Do Me Like That
TTITLE5=Someday
TTITLE6=Over My Head
TTITLE7=Got To Feel Love
TTITLE8=Lonely Hearts
TTITLE9=My Baby Only Loves Me When She's Drunk
TTITLE10=Stickin' To You
TTITLE11=Keep Reachin' For The Top
EXTD=
EXTT0=
EXTT1=
EXTT2=
EXTT3=
EXTT4=
EXTT5=
EXTT6=
EXTT7=
EXTT8=
EXTT9=
EXTT10=
EXTT11=
PLAYORDER=
